<svg width="81" height="80" viewBox="0 0 81 80" xmlns="http://www.w3.org/2000/svg" xmlns:xlink="http://www.w3.org/1999/xlink">
    <defs>
        <linearGradient x1="0%" y1="0%" x2="0%" y2="1280%" id="98qg8wdwib">
            <stop stop-color="#655DBB" offset="0%"/>
            <stop stop-color="#7149C6" offset="100%"/>
        </linearGradient>
        <linearGradient x1="0%" y1="50%" x2="100%" y2="50%" id="8tpy2hlb4e">
            <stop stop-color="#655DBB" offset="0%"/>
            <stop stop-color="#7149C6" offset="100%"/>
        </linearGradient>
        <path d="M40 80c22.091 0 40-17.909 40-40S62.091 0 40 0 0 17.909 0 40s17.909 40 40 40z" id="pcrsnq9sha"/>
        <path d="M40 80c22.091 0 40-17.909 40-40S62.091 0 40 0 0 17.909 0 40s17.909 40 40 40z" id="uanti3vled"/>
    </defs>
    <g fill="none" fill-rule="evenodd">
        <g opacity=".502">
            <g transform="translate(.5)">
                <mask id="twff2l454c" fill="#fff">
                    <use xlink:href="#pcrsnq9sha"/>
                </mask>
                <path d="M40 80c22.091 0 40-17.909 40-40S62.091 0 40 0 0 17.909 0 40s17.909 40 40 40z" fill="url(#98qg8wdwib)" mask="url(#twff2l454c)"/>
            </g>
            <g transform="translate(.5)">
                <mask id="mcz4qyi5lf" fill="#fff">
                    <use xlink:href="#uanti3vled"/>
                </mask>
                <path d="M40 80c22.091 0 40-17.909 40-40S62.091 0 40 0 0 17.909 0 40s17.909 40 40 40z" fill="url(#8tpy2hlb4e)" mask="url(#mcz4qyi5lf)"/>
            </g>
        </g>
        <g fill="#FFF">
            <path d="M53.972 25c2.5 0 4.528 2.001 4.528 4.47v25.38c0 1.235-1.014 2.236-2.264 2.236a2.279 2.279 0 0 1-1.604-.658l-5.195-5.146h-22.41c-2.5 0-4.527-2.001-4.527-4.47V29.47C22.5 27 24.527 25 27.028 25h26.944zm0 2.905H27.028c-.803 0-1.466.589-1.57 1.352l-.015.213v17.342c0 .792.596 1.447 1.37 1.55l.215.015h22.41c.67 0 1.317.225 1.836.635l.248.22 4.035 3.996V29.47c0-.792-.596-1.447-1.37-1.55l-.215-.015z"/>
            <path d="M46.89 33.1a1.35 1.35 0 0 1 .183 2.688l-.183.012h-12.6a1.35 1.35 0 0 1-.183-2.688l.183-.012h12.6zM40.59 39.76a1.35 1.35 0 0 1 .183 2.688l-.183.012h-6.3a1.35 1.35 0 0 1-.183-2.688l.183-.012h6.3z" fill-rule="nonzero"/>
        </g>
    </g>
</svg>
